<svg xmlns="http://www.w3.org/2000/svg" width="41" height="41"><defs><clipPath id="prefix__a"><path data-name="Pfad 10111" d="M3111.009 2235.127a20.5 20.5 0 11-20.5 20.5 20.5 20.5 0 0120.5-20.5z" transform="translate(-3090.509 -2235.127)" fill="#fff"/></clipPath></defs><g data-name="Gruppe 1222"><g data-name="Gruppe 1220"><g data-name="Gruppe 1214"><path data-name="Pfad 10106" d="M20.5 0A20.5 20.5 0 110 20.5 20.5 20.5 0 0120.5 0z" fill="#fff"/><g data-name="Gruppe 1213" clip-path="url(#prefix__a)" fill-rule="evenodd"><path data-name="Pfad 10107" d="M20.5.01A20.5 20.5 0 110 20.51 20.5 20.5 0 0120.5.01z" fill="#fff"/><path data-name="Pfad 10108" d="M-13.625 13.677h68.25V.01h-68.25v13.667z" fill="red"/><path data-name="Pfad 10109" d="M-13.625 27.343h68.25V13.676h-68.25v13.667z" fill="#fff"/><path data-name="Pfad 10110" d="M-13.625 41.01h68.25V27.343h-68.25V41.01z" fill="red"/></g><path data-name="Pfad 10112" d="M20.5 0A20.5 20.5 0 110 20.5 20.5 20.5 0 0120.5 0z" fill="none"/></g></g></g></svg>