<svg xmlns="http://www.w3.org/2000/svg" width="41" height="41"><defs><clipPath id="prefix__a"><path data-name="Pfad 10120" d="M3284.806 1605.5a20.5 20.5 0 11-20.5 20.5 20.5 20.5 0 0120.5-20.5z" transform="translate(-3264.306 -1605.501)" fill="#fff"/></clipPath></defs><g data-name="Gruppe 1219"><g data-name="Gruppe 1218"><path data-name="Pfad 10115" d="M20.5-.001A20.5 20.5 0 110 20.499a20.5 20.5 0 0120.5-20.5z" fill="#fff"/><g data-name="Gruppe 1217" clip-path="url(#prefix__a)" fill-rule="evenodd"><path data-name="Pfad 10116" d="M20.5.01A20.5 20.5 0 110 20.51 20.5 20.5 0 0120.5.01z" fill="#fff"/><path data-name="Pfad 10117" d="M-13.625 41.009h68.251V27.342h-68.251v13.667z" fill="#fc0"/><path data-name="Pfad 10118" d="M-13.625 13.677h68.251V.01h-68.251v13.667z"/><path data-name="Pfad 10119" d="M-13.625 27.345h68.251V13.678h-68.251v13.667z" fill="red"/></g><path data-name="Pfad 10121" d="M20.5-.001A20.5 20.5 0 110 20.499a20.5 20.5 0 0120.5-20.5z" fill="none"/></g></g></svg>