<svg xmlns="http://www.w3.org/2000/svg" width="41" height="41"><g data-name="Gruppe 1282" fill="#fff"><g data-name="Ellipse 358" stroke="#707070" opacity=".111"><circle cx="20.5" cy="20.5" r="20.5" stroke="none"/><circle cx="20.5" cy="20.5" r="20" fill="none"/></g><path data-name="Pfad 4909" d="M26.008 9.028c0 .072-.015 2.588-.008 3.734 0 .163-.048.2-.206.2a17.25 17.25 0 00-2.562.084.869.869 0 00-.712.855c-.031.825-.027 1.651-.042 2.477 0 .15.1.125.185.125h3.351l-.414 3.925h-3.118c0 .092-.008 11.348-.01 11.415h-4.265V20.434h-2.839s-.008-2.551-.014-3.73c0-.163.048-.2.206-.2.814.007 1.628 0 2.442.007.174 0 .211-.056.211-.218 0-1.057 0-2.114.037-3.17a5.192 5.192 0 01.545-2.211 2.99 2.99 0 011.808-1.542c1.344-.476 4.129-.342 5.405-.342z"/></g></svg>