<svg xmlns="http://www.w3.org/2000/svg" width="41" height="41"><g data-name="Gruppe 1281" fill="#fff"><g data-name="Ellipse 357" stroke="#707070" opacity=".111"><circle cx="20.5" cy="20.5" r="20.5" stroke="none"/><circle cx="20.5" cy="20.5" r="20" fill="none"/></g><g data-name="Gruppe 1136" transform="translate(9.699 9.369)"><path data-name="Pfad 4821" d="M10.753 1.938c2.871 0 3.211.011 4.345.063a5.952 5.952 0 012 .37 3.561 3.561 0 012.038 2.04 5.952 5.952 0 01.37 2c.052 1.134.063 1.474.063 4.345s-.011 3.211-.063 4.345a5.952 5.952 0 01-.37 2 3.561 3.561 0 01-2.041 2.041 5.952 5.952 0 01-2 .37c-1.134.052-1.474.063-4.345.063s-3.211-.011-4.345-.063a5.952 5.952 0 01-2-.37 3.561 3.561 0 01-2.041-2.041 5.952 5.952 0 01-.37-2c-.052-1.134-.063-1.474-.063-4.345s.011-3.211.063-4.345a5.952 5.952 0 01.37-2A3.561 3.561 0 014.411 2.37a5.952 5.952 0 012-.37c1.134-.052 1.474-.063 4.345-.063m0-1.938c-2.92 0-3.287.012-4.434.065a7.893 7.893 0 00-2.61.5A5.5 5.5 0 00.565 3.709a7.893 7.893 0 00-.5 2.61C.013 7.466 0 7.832 0 10.753s.012 3.287.065 4.434a7.893 7.893 0 00.5 2.61 5.5 5.5 0 003.145 3.145 7.893 7.893 0 002.61.5c1.147.052 1.513.065 4.434.065s3.287-.012 4.434-.065a7.893 7.893 0 002.61-.5 5.5 5.5 0 003.145-3.145 7.893 7.893 0 00.5-2.61c.052-1.147.065-1.513.065-4.434s-.012-3.287-.065-4.434a7.893 7.893 0 00-.5-2.61A5.5 5.5 0 0017.798.564a7.893 7.893 0 00-2.61-.5c-1.147-.052-1.513-.065-4.434-.065z"/><path data-name="Pfad 4822" d="M10.753 5.231a5.522 5.522 0 105.522 5.522 5.522 5.522 0 00-5.522-5.522zm0 9.106a3.584 3.584 0 113.584-3.584 3.584 3.584 0 01-3.584 3.584z"/><circle data-name="Ellipse 110" cx="1.29" cy="1.29" r="1.29" transform="translate(15.203 3.723)"/></g></g></svg>