<svg xmlns="http://www.w3.org/2000/svg" width="100.604" height="45.761"><g data-name="Gruppe 1157"><g data-name="Gruppe 13"><path data-name="Pfad 13" d="M40.826 28.816c.077.078.127.137.184.187a11.423 11.423 0 002.994 1.908 14.937 14.937 0 005.993 1.222 16.7 16.7 0 002.434-.166 16.782 16.782 0 004.176-1.132 13.8 13.8 0 004.19-2.678 10.621 10.621 0 002.907-4.536 12.571 12.571 0 00.533-4.534 12.928 12.928 0 00-.577-3.213 15.228 15.228 0 00-3.975-6.339 22.474 22.474 0 00-6.277-4.287 30.519 30.519 0 00-6.653-2.212.391.391 0 00-.246-.027.808.808 0 00.015.08 3.89 3.89 0 01.02 2.2.331.331 0 00-.018.153c.027.2.047.4.071.6.095.763.166 1.527.224 2.294.034.491.08.979.1 1.469a11.685 11.685 0 010 1.8.3.3 0 00.009.115c.089.3.031.421-.262.541-.393.164-.784.33-1.169.515a5.288 5.288 0 00-1.5 1.025 7.4 7.4 0 00-.732.875.465.465 0 01-.3.2.8.8 0 01-.858-.668 1.06 1.06 0 01.118-.6 3.463 3.463 0 01.628-.832c.226-.233.466-.448.706-.664a1.922 1.922 0 00.408-.672.324.324 0 00-.207.062 2.568 2.568 0 01-.5.262c-.211.1-.42.2-.634.293a1.4 1.4 0 00-.83 1.074c-.024.126-.062.249-.1.373a.429.429 0 01-.231.271.749.749 0 01-.673.1.569.569 0 00.166.362.322.322 0 01.08.323 5.162 5.162 0 01-.2.648c-.077.206-.158.408-.217.621a.8.8 0 00-.006.439c.037.139.077.275.113.411a1.4 1.4 0 01-.182 1.116.384.384 0 01-.612.089c-.078-.069-.147-.146-.228-.211a.449.449 0 00-.284-.128.591.591 0 01-.342.608c-.14.091-.28.187-.424.271-.353.2-.71.4-1.067.6a.25.25 0 00-.151.218 11.287 11.287 0 000 1.945c.02.284.045.568.093.848.013.076.042.111.122.113a3.52 3.52 0 00.886-.058c.248-.056.295-.116.321-.366a.418.418 0 01.473-.424 3.384 3.384 0 01.406.033 2.059 2.059 0 01.728.18.324.324 0 00.337.006c.056-.029.116-.055.173-.085a14.426 14.426 0 001.454-.889 7.383 7.383 0 011.77-.908 2.56 2.56 0 01.946-.177.922.922 0 01.887.634 1.54 1.54 0 01.085.395c.016.233.024.466.024.7a.685.685 0 00.415.684 2.019 2.019 0 01.7.6 7.559 7.559 0 01.715 1.105.994.994 0 01.046.877c-.073.193-.175.373-.266.561-.158.326-.187.262.04.608a7.775 7.775 0 00.7.855 2.505 2.505 0 01.435.685.723.723 0 01.093.351c-.024.191.084.253.231.295.044.011.087.025.131.036a.436.436 0 01.3.652c-.024.055-.084.1-.068.182.087.018.175.035.261.055a.53.53 0 01.484.579.572.572 0 00.018.239 1.775 1.775 0 01.714-.073c.38.025.761.046 1.141.073a.73.73 0 00.357-.06.787.787 0 01.411-.094.287.287 0 01.251.419.519.519 0 01-.165.211 2.073 2.073 0 01-.363.224 5.793 5.793 0 01-1.429.472 2.65 2.65 0 01-1.58-.1 2.558 2.558 0 00-.561-.142c-.488-.069-.979-.064-1.469-.109a5.929 5.929 0 01-1.475-.3 37.33 37.33 0 01-2.459-1c-.568-.249-1.13-.51-1.684-.79-.142-.071-.147-.069-.215.067a.749.749 0 01-.479.395 2.256 2.256 0 01-.548.073M43.789.003a1.045 1.045 0 00.393.069 32.19 32.19 0 017.319 1.715 28.522 28.522 0 017.605 4.081 21.6 21.6 0 015.033 5.277 16.3 16.3 0 012.394 5.6 15 15 0 01.3 2.186 14.313 14.313 0 01-.015 2.11 13.155 13.155 0 01-3.149 7.706 15.811 15.811 0 01-4.92 3.806 20.114 20.114 0 01-5.6 1.862 21.019 21.019 0 01-4.456.332 18.749 18.749 0 01-6.548-1.345 13.974 13.974 0 01-4.829-3.215 12.469 12.469 0 01-3.222-6.065 12.464 12.464 0 01-.3-3.327 12.621 12.621 0 01.976-4.265 18.436 18.436 0 012.454-4.117 38.978 38.978 0 012.74-3.138c.823-.866 1.669-1.713 2.465-2.607a12.66 12.66 0 001.047-1.32c.122-.184.231-.373.335-.568a2.05 2.05 0 00.2-1.444 5.583 5.583 0 00-.957-2.121.934.934 0 01-.164-.306.687.687 0 01.382-.836c.046-.022.106-.018.135-.069z"/></g><g data-name="Gruppe 14"><path data-name="Pfad 14" d="M97.234 42.773c-.27-.53-.53-1.041-.8-1.582-.262.544-.519 1.052-.756 1.582zm3.371 2.876c-.575 0-1.15-.006-1.724 0a.238.238 0 01-.255-.148c-.193-.395-.406-.779-.6-1.172a.238.238 0 00-.256-.149c-.87.006-1.744.006-2.616 0a.248.248 0 00-.268.159c-.193.4-.4.8-.6 1.192-.037.073-.071.124-.169.122-.57-.006-1.138 0-1.705 0a.053.053 0 01-.055-.029.382.382 0 01.069-.171l3.561-6.816a.229.229 0 01.251-.156 3.056 3.056 0 00.464 0 .2.2 0 01.211.127c.173.339.353.675.532 1.012l3.043 5.774.116.217z"/></g><g data-name="Gruppe 15"><path data-name="Pfad 15" d="M0 38.474q.494.006.989.009c.315 0 .632.006.948 0a.22.22 0 01.237.144c.422.879.852 1.757 1.278 2.632.208.424.413.849.621 1.271a.952.952 0 00.051.091.486.486 0 00.108-.186c.568-1.261 1.149-2.514 1.717-3.774a.252.252 0 01.269-.181c.6.009 1.191 0 1.784.005a.3.3 0 01.169.018c.015.066-.029.111-.055.16q-1.785 3.416-3.569 6.836a.233.233 0 01-.255.153 3.036 3.036 0 00-.444 0 .218.218 0 01-.239-.144c-.263-.534-.536-1.06-.809-1.589L.127 38.692C.1 38.638.1 38.545 0 38.552z"/></g><g data-name="Gruppe 16"><path data-name="Pfad 16" d="M46.987 40.062a2.385 2.385 0 00-1.463.472 1.876 1.876 0 00-.2 2.905 2.349 2.349 0 003.226-.004 1.854 1.854 0 00.1-2.616 2.252 2.252 0 00-1.664-.757m-4.087 2.015a3.446 3.446 0 011.558-2.9 4.149 4.149 0 012.878-.752 4.116 4.116 0 012.674 1.262 3.341 3.341 0 01.983 2.569 3.443 3.443 0 01-1.236 2.46 4.111 4.111 0 01-2.385 1.016 4.187 4.187 0 01-3.102-.887 3.559 3.559 0 01-1.361-2.362.847.847 0 01-.009-.1v-.306"/></g><g data-name="Gruppe 17"><path data-name="Pfad 17" d="M58.338 42.641c-.022-1.331-.006-2.661-.009-3.99 0-.14 0-.144.136-.144h1.493c.137 0 .137 0 .14.14v6.901c.006.075-.033.1-.106.1-.206 0-.413-.006-.619 0a.288.288 0 01-.2-.1l-1.822-1.6q-1.278-1.114-2.55-2.231c-.038-.035-.08-.062-.127-.1a.175.175 0 00-.013.136 2.744 2.744 0 01.022.406v3.277c0 .227.018.213-.206.213h-1.374c-.222 0-.2.018-.2-.213v-6.668-.137c-.007-.087.022-.129.118-.125q.3.008.6 0a.272.272 0 01.2.1q.986.888 1.975 1.773 1.2 1.081 2.412 2.161c.046.04.08.1.133.106"/></g><g data-name="Gruppe 18"><path data-name="Pfad 18" d="M81.632 40.885c-.251-.111-.5-.226-.746-.331a7.484 7.484 0 00-1.95-.552 2.545 2.545 0 00-1.95.448 1.986 1.986 0 00-.857 1.675 1.848 1.848 0 00.74 1.436 2.627 2.627 0 001.873.6 3.653 3.653 0 001.008-.182c.055-.02.1-.049.161-.069a.221.221 0 00.162-.248c-.009-.479 0-.956 0-1.434v-.116c.005-.137.005-.14.142-.142h1.551c.139.006.14.006.142.142q.008.581.007 1.163c0 .4 0 .788.006 1.183a.241.241 0 01-.109.225 5.3 5.3 0 01-2.956 1.053 4.713 4.713 0 01-2.246-.406 3.724 3.724 0 01-2.09-2.248 3.245 3.245 0 01.766-3.342 3.964 3.964 0 012.669-1.307 5.882 5.882 0 013.519.774.335.335 0 01.2.351c-.015.4 0 .8-.005 1.2a.144.144 0 01-.035.125"/></g><g data-name="Gruppe 19"><path data-name="Pfad 19" d="M84.122 40.527v-1.86c0-.16 0-.162.158-.162h1.473c.153 0 .156 0 .156.164V42.1a2.539 2.539 0 00.14.874 1.573 1.573 0 001.419 1.092 2.167 2.167 0 00.824-.06 1.615 1.615 0 001.18-1.351 2.828 2.828 0 00.05-.58v-3.348c0-.235-.025-.217.22-.218h1.435c.147 0 .151 0 .151.151 0 1.194.007 2.39 0 3.586a3.93 3.93 0 01-.28 1.436 3.061 3.061 0 01-2.071 1.886 4.371 4.371 0 01-2.579-.016 3.078 3.078 0 01-2.158-2.376 4.525 4.525 0 01-.118-1.096v-1.553"/></g><g data-name="Gruppe 20"><path data-name="Pfad 20" d="M40.835 43.056v.746c0 .253-.009.5 0 .757a.272.272 0 01-.146.265 5.691 5.691 0 01-2.05.836 4.514 4.514 0 01-2.5-.168 3.711 3.711 0 01-2.283-2.23 3.484 3.484 0 01.954-3.8 4.085 4.085 0 012.776-1.065 5.726 5.726 0 013.115.921c.063.042.131.075.129.173v1.547c-.085.018-.131-.038-.184-.068a6.674 6.674 0 00-2.316-.846 2.826 2.826 0 00-1.416.062 1.983 1.983 0 00-1.405 1.607 1.827 1.827 0 00.562 1.656 2.178 2.178 0 001.693.628 6.17 6.17 0 002.863-.923.528.528 0 01.2-.1"/></g><g data-name="Gruppe 21"><path data-name="Pfad 21" d="M23.803 42.775h1.569l-.808-1.584-.761 1.584m4.948 2.874h-1.056c-.233 0-.466-.005-.7 0a.208.208 0 01-.224-.133c-.193-.388-.4-.768-.592-1.156a.279.279 0 00-.293-.186c-.865.011-1.729.007-2.6 0a.251.251 0 00-.268.161c-.195.4-.4.793-.6 1.192-.038.073-.075.122-.173.12-.57-.006-1.136 0-1.706 0a.049.049 0 01-.053-.029.4.4 0 01.078-.165q1.783-3.408 3.56-6.816a.233.233 0 01.251-.156 2.855 2.855 0 00.466 0 .2.2 0 01.211.125c.149.295.306.582.459.875l3.13 5.946c.031.062.06.126.109.222"/></g><g data-name="Gruppe 22"><path data-name="Pfad 22" d="M69.543 41.189c-.266.555-.52 1.056-.752 1.578a9.354 9.354 0 001.54-.024c-.253-.506-.511-1.006-.788-1.554m4.152 4.433a.187.187 0 01-.138.025h-1.589a.209.209 0 01-.222-.139c-.2-.4-.411-.79-.612-1.189a.23.23 0 00-.237-.146q-1.327.006-2.658 0a.223.223 0 00-.235.146c-.193.4-.4.783-.594 1.178a.223.223 0 01-.232.154c-.522-.007-1.046 0-1.571 0a.2.2 0 01-.129-.022c-.016-.071.033-.12.062-.175q1.763-3.386 3.538-6.766c.013-.029.033-.056.044-.085a.171.171 0 01.195-.12 4.276 4.276 0 00.484 0 .223.223 0 01.239.146c.248.482.5.961.755 1.441l2.818 5.35a.455.455 0 01.085.2"/></g><g data-name="Gruppe 23"><path data-name="Pfad 23" d="M20.812 38.483a.734.734 0 01-.1.24q-1.76 3.367-3.521 6.729a.6.6 0 00-.035.069.182.182 0 01-.208.131 3.209 3.209 0 00-.464 0 .231.231 0 01-.253-.151c-.357-.717-.726-1.427-1.09-2.141q-1.189-2.337-2.389-4.67c-.029-.055-.077-.1-.066-.178.044-.04.1-.022.146-.022.575 0 1.15 0 1.726-.006a.236.236 0 01.248.16q.909 1.884 1.828 3.763c.032.067.071.133.115.215a.751.751 0 00.122-.218c.568-1.245 1.14-2.488 1.7-3.737a.261.261 0 01.291-.187c.588.009 1.176 0 1.764 0z"/></g><g data-name="Gruppe 24"><path data-name="Pfad 24" d="M11.232 42.124v3.315c0 .237 0 .209-.209.209H9.86c-.186 0-.186 0-.186-.193v-6.571-.155c0-.073.025-.1.1-.1h1.356c.078 0 .1.037.1.106v.155z"/></g><g data-name="Gruppe 25"><path data-name="Pfad 25" d="M58.366 15.685a1.579 1.579 0 00.151.071 3.968 3.968 0 011.405.872 4.4 4.4 0 001.105.743 3.689 3.689 0 01.777.472c.106.089.127.08.244-.018a.68.68 0 01.124-.091.251.251 0 01.351.1.651.651 0 01.076.217 10.258 10.258 0 01.2 3.1 10.622 10.622 0 01-1.057 3.863 9.376 9.376 0 01-2.556 3.2.69.69 0 01-.48.164c-.1-.005-.195-.007-.292-.018a.253.253 0 01-.248-.231 2.375 2.375 0 00-.286-.9c-.062-.128-.118-.259-.178-.386a.328.328 0 01.053-.379 1.433 1.433 0 00.16-.242.742.742 0 000-.741 1.872 1.872 0 00-.3-.4 6.494 6.494 0 00-.717-.621.39.39 0 01-.168-.4c.068-.528-.151-.759-.684-.759a3.235 3.235 0 00-1.041.2 4.482 4.482 0 00-1.229.6.775.775 0 01-.3.125c-.6.111-1.194.218-1.789.337a1.237 1.237 0 01-.717-.056 15.3 15.3 0 01-1.613-.759.378.378 0 01-.215-.275.761.761 0 00-.08-.237.288.288 0 00-.217-.171c-.195-.033-.259-.116-.249-.3a7.331 7.331 0 00-.133-1.463 3.513 3.513 0 01-.068-1.1 1.4 1.4 0 01.5-.91 4.179 4.179 0 01.361-.262.576.576 0 00.271-.486c.013-.173.022-.348.04-.52a.812.812 0 01.406-.663 36.424 36.424 0 012.621-1.422c.2-.1.41-.195.615-.287a1.134 1.134 0 01.22-.075.266.266 0 01.361.279 1.027 1.027 0 00.031.287.19.19 0 00.2.149 2.182 2.182 0 00.67-.084.824.824 0 01.586.028 1.12 1.12 0 00.32.073.61.61 0 00.692-.432 1.319 1.319 0 00.036-.149.319.319 0 01.351-.289 2.714 2.714 0 00.8-.124 1.216 1.216 0 00.677-.492.8.8 0 00.1-.7.486.486 0 00-.715-.295 1.283 1.283 0 00-.322.246.371.371 0 01-.492.077c-.184-.093-.366-.193-.548-.287a.372.372 0 00-.124-.053.178.178 0 00-.178.047c-.035.049.009.1.033.142a2.666 2.666 0 00.155.246.259.259 0 01.035.306.287.287 0 01-.289.116.566.566 0 01-.249-.1c-.4-.248-.8-.5-1.216-.723a3.722 3.722 0 00-1.045-.4.555.555 0 00-.268 0c-.075.024-.115.064-.066.144a.219.219 0 01.026.051.362.362 0 01-.337.517.493.493 0 01-.279-.069.2.2 0 00-.215 0 1.452 1.452 0 00-.852 1.016c-.063.289-.147.575-.217.863a.392.392 0 01-.311.309c-.424.111-.848.224-1.274.33a.356.356 0 01-.473-.248 1.691 1.691 0 01-.075-.99.365.365 0 01.361-.269c.244-.028.488-.053.732-.082.308-.035.324-.055.3-.358 0-.038-.009-.077-.013-.115-.011-.233-.167-.333-.364-.389-.113-.033-.24-.047-.267-.184s.072-.211.165-.284a1.517 1.517 0 00.332-.324.857.857 0 00.184-.541.346.346 0 01.171-.324 1.382 1.382 0 00.269-.22.136.136 0 00.013-.2c-.14-.178-.131-.253.02-.419.04-.042.082-.082.118-.127.062-.08.034-.149-.068-.16a.973.973 0 00-.289.022 1.95 1.95 0 01-.5.024.792.792 0 01-.4-.135.233.233 0 01-.032-.413c.06-.056.127-.109.184-.171.108-.115.113-.133.02-.266a.7.7 0 010-.817.449.449 0 01.323-.224c.353-.051.7-.1 1.054-.147a2.69 2.69 0 00.322-.073.3.3 0 00.235-.268 6.7 6.7 0 01.3-1.141 1.736 1.736 0 01.193-.4.206.206 0 01.231-.1 13.415 13.415 0 015.179 2.119 13.472 13.472 0 012.5 2.446c.328.4.641.812.943 1.232a.281.281 0 01-.051.449c-.063.056-.129.108-.193.164a.432.432 0 01-.5.069c-.069-.029-.153-.113-.209-.053s.025.151.064.218a1.21 1.21 0 00.572.5c.113.055.158.042.209-.076a.338.338 0 01.562-.109 1.578 1.578 0 01.554 1.034 4.68 4.68 0 01-.1 1.5 1.843 1.843 0 01-.056.264.283.283 0 01-.473.149 1.058 1.058 0 01-.137-.135 9.986 9.986 0 00-1.343-1.2 3.233 3.233 0 00-.739-.42.542.542 0 00-.568.042c-.115.084-.244.144-.395.233"/></g></g></svg>