<svg xmlns="http://www.w3.org/2000/svg" width="293.265" height="207.858"><g data-name="Gruppe 1211"><path data-name="Pfad 10105" d="M3.484 43.287l.363.027 7.104-9.01 1.122 2.095-.181-2.067.975-.264 16.477-1.879-1.057.775.432 1.171-.269 5.434.203.48-1.465.971 1.125.366L15.392 42.9l-1.779 2.522.401 3.268 18.139 4.613.902.897-.187.239.56-.14 1.777 14.474-.284.035-7.867 9.247-1.841-.926.183.913-.524.424L7.5 80.097l1.12-.857-.726-.632.84-3.125.926-1.846-.557-.435.527-2.154-.566-.506 13.319-1.203 3.048-3.328-.644-5.248L6.666 56.29l-1.497-1.044.294-.54-.541.286zM58.698 28.44l-.053.15 9.343 7.496-3.577 1.95 1.126-.21 2.476-.951 1.212 9.285-1.188-.286-.585-.072 1.61.81-6.35 8.053-.308-.754-.948-.099.618 1.509L49.7 57.201l1.967 17.188-.762-.338-1.306 1.096-6.59.88-.595.433-5.328-45.147.93 1.108.375-1.053 6.738-.252-.087-.713-.336-.391zm-10.044 19.67l8.354-1.169 2.427-3.107-.348-2.839-4.045-3.03-7.387.836zm33.18-22.438l15.942-2.174-1.145.644.656 1.86-.214.603.624 2.156-.267.753.433.595-.17.956.2 1.632-13.672 1.894.027-.363-.92-.463.978 9.68 10.048-1.45 1.763.287-.55.788.658 3.016.942 2.982.121 1.57-12.097 1.773.912 9.178 13.174-1.833.638.498.966.241.488 3.397.459.808 1.02 3.62-16.495 2.313-.24.39-4.763.513-1.17.432-1.41-.331-.968.91-4.747-45.653 2.6-.535.406.382 2.298-.641 2.979.21-.01-.072zm35.118 40.842l-.702.734-1.418-.403-.976.84-3.894.55-.77-.409-.676.947-5.466-46.278.68.852.694-.805 1.32.197 5.468-.6 1.418.402.27 2.197.684-.876 17.95 23-2.936-27.437.68.853.481-.78 1.054.375 3.413-.923 2.66-.039 1.234-.51 4.714 46.015-.664-.71-1.428.103h-4.104l-.728.522-1.25-.206-.948.476-.363-.604-.148-1.208-.789.026-17.695-22.673 3.169 26.977zm80.544-56.63l15.937-2.173-1.15.645.662 1.863-.212.6.625 2.157-.267.753.432.594-.17.957.2 1.634-13.67 1.894.026-.363-.921-.463.972 9.675 10.048-1.45 1.763.288-.55.788.658 3.016.946 2.977.12 1.57-12.096 1.773.911 9.179 13.175-1.834.637.498.966.241.489 3.397.459.808 1.02 3.62-16.496 2.313-.24.39-4.762.513-1.171.432-1.409-.331-.968.91-4.745-45.65 2.6-.534.406.382 2.298-.642 2.979.211-.009-.071zm-76.814 108.12l.07-.009-10.223 12.922.008.07-.066.009-11.678 1.074.008.07-3.698.959-.797-.623-1.182.937-2.846.278-.923.69-5.794-46.603.992.455 2.803-.632.531.222 5.314-.652.087.71 13.671-1.896-.773.743.201 1.056-.454.991.86-.61.305-1.044 10.771 9.767-.515.496.869.037zm-10.327-.82l.363.026-2.021-16.458-6.173-5.147-8.142 1.143 3.24 26.392 7.831-.746 4.685-5.832zm21.45-34.105l15.936-2.173-1.145.645.661 1.863-.214.603.625 2.156-.268.753.433.595-.17.957.2 1.631-13.671 1.894.027-.363-.922-.463.978 9.675 10.048-1.449 1.763.287-.55.788.658 3.016.942 2.982.121 1.57-12.097 1.773.911 9.179 13.175-1.834.638.498.965.241.489 3.397.459.808 1.02 3.62-16.495 2.314-.24.389-4.763.513-1.17.432-1.41-.33-.968.91-4.746-45.656 2.599-.535.406.383 2.298-.642 2.98.21-.01-.07zm32.105 41.571l-.584-.649-.764.815-2.481.304-.932.618-5.549-45.192.878.108 1.712-.714 4.96-1.257 1.07.516.986-.769 5.505 44.838-.966.334-.853.68zm21.453-2.994l-.702.734-1.417-.402-.977.84-3.893.55-.771-.41-.676.948-5.466-46.279.68.853.694-.806 1.32.198 5.468-.6 1.418.402.27 2.2.684-.876 17.948 23.002-2.936-27.438.68.853.481-.78 1.054.375 3.413-.923 2.66-.039 1.234-.51 4.714 46.015-.664-.71-1.428.103h-4.104l-.728.522-1.25-.206-.949.476-.362-.603-.149-1.211-.788.025-17.695-22.673 3.168 26.977zm37.602-49.77l15.937-2.173-1.145.645.66 1.863-.213.603.624 2.156-.267.753.432.595-.17.956.2 1.632-13.67 1.894.026-.363-.921-.463.972 9.675 10.048-1.45 1.763.288-.55.788.658 3.016.942 2.981.121 1.57-12.097 1.774.912 9.178 13.175-1.833.637.498.966.241.488 3.397.46.808 1.02 3.62-16.496 2.313-.24.39-4.762.512-1.172.432-1.408-.33-.969.91-4.737-45.656 2.6-.534.406.382 2.298-.642 2.979.21-.009-.07zm35.117 40.842l-.702.734-1.418-.403-.976.84-3.893.55-.771-.409-.676.947-5.466-46.278.68.852.694-.805 1.32.197 5.468-.6 1.418.403.27 2.199.684-.876 17.947 23.002-2.937-27.437.681.852.481-.78 1.054.375 3.413-.923 2.66-.038 1.234-.511 4.714 46.015-.664-.71-1.428.103h-4.105l-.727.522-1.25-.206-.949.476-.362-.603-.149-1.211-.789.025-17.695-22.672 3.182 26.974zm-238.23 46.848l.654.64 2.412-.296 3.03.06 1.73-.572-.105-.276 14.952-1.98v.577l8.372 6.606 1.324 10.784-1.907.306.806.693.86-.034-2.73 3.577 3.91 3.12.114.346.133-.088.035.284 1.192 10.296.018.141-.142.018-5.38 7.21-1.528 1.051-1.645-1.094.175.843.574.577-11.773 1.446-.64.654-4.026.639-.876-.685-.676.948-2.2.27-.914.76zm12.372 22.173l1.594 12.984 9.09-1.045 1.857-2.46-.417-3.98-2.973-2.515-7.803.958zm-.601-4.895l8.868-1.089 1.885-2.246-.637-4.603-2.566-2.133-8.63 1.275zm34.58-22.18l15.938-2.172-1.145.644.66 1.864-.214.602.625 2.156-.267.753.432.595-.17.957.2 1.632-13.671 1.894.027-.363-.921-.463.972 9.674 10.048-1.45 1.763.288-.55.788.658 3.016.942 2.982.121 1.57-12.097 1.773.912 9.179 13.174-1.834.638.498.965.241.49 3.397.458.808 1.02 3.62-16.495 2.314-.24.389-4.763.513-1.17.432-1.41-.33-.968.91-4.74-45.652 2.599-.534.406.382 2.298-.642 2.979.21-.009-.07zm22.27 8.933l.045-.221-.38-.17 10.488-12.522.14.56.957.17.195.408-.166-1.347 14.406-1.77-.472.85.837 6.235-.615 1.444 1.027.738-11.07 1.36-5.91 6.99 2.06 13.863 7.532 6.204 11.433-1.907-.693.805 1.422 6.307.59 1.872-15.663 2.643-.12-2.145-.542.859-.25.895-12.417-10.214-.346.114-3.179-21.79.409-.194zm31.472-15.243l1.03-.415.805.693.533-.93 5.739-.776.707 1.066.738-1.027 2.152 17.524 10.712-1.316-2.033-18.906.85 1.049 1.552-.263.762.34 2.235-.563 2.739.023 1.027.738.48-.78 1.887 17.125 1.916-.236-.577.575.576 8.211-.95.476 2.088 18.756-.922-.464-1.915.236-4.087.142-1.659.563-.957-.17-1.983-17.905-10.633 1.377 2.204 17.95-2.076.686-1.746-.145-3.104.525-1.092.494-.778-1.057-.694 1.382zm47.002-6.06l15.937-2.172-1.145.644.661 1.864-.214.602.624 2.156-.267.754.433.594-.17.957.2 1.632-13.672 1.894.027-.363-.92-.463.971 9.675 10.049-1.45 1.763.287-.551.789.658 3.016.943 2.981.12 1.57-12.096 1.774.911 9.178 13.175-1.833.637.498.966.24.489 3.398.458.808 1.021 3.62-16.496 2.313-.24.389-4.762.513-1.171.432-1.41-.33-.967.91-4.741-45.651 2.6-.535.406.382 2.298-.642 2.978.21-.008-.07zm43.711-5.295l-.044.221 8.957 7.255.212-.027.018.142.16.125-.134.088 1.403 10.846-.186.238-6.32 7.186.097.204-1.173 1.008-.984.192.672.782 12.788 14.994-1.463-.18-.605.938-4.078.213-2.05.9-1.824-.784-.241.965-12.236-15.781.391-.336 5.18-1.212-8.213 1.152 2.178 17.738-.672-.782-2.147.696-3.953.63-1.632.2-1.029.414-5.76-45.739 1.524.101 6.924.086.249-.319-.424-.524zm-1.992 18.968l2.524-2.902-.566-4.611-.559.14-2.7-2.046-8.663.993 1.89 15.395.258-.247-.281-5.223.373-.478zm33.145 10.117l-2.527.526-.922-.463-2.493.81-1.702.209-1.177-.792-.667 1.018-4.015-32.701 1.079 1.164.756-1.461 5.684-.626 1.1.153.817-.965zm-8.897 6.13l1.33.27.507-.567 5.498-.963 1.498.464.666-.442 1.028 8.371-.867-.613-.65.583-1.427.104-2.978.365-.728.522-2.357-.43-.524.423z" fill="#fff" stroke="rgba(0,0,0,0)"/><path data-name="Pfad 10104" d="M25.328 56.375l7.54-1.933-4.814 5.92-.002 1.152-3.261-.752-.54-4.399zM14.015 48.69l.105.852-8.656 5.167 1.283-2.461.83-3.2.925-1.266-.07-.566zm8.368 20.65l2.49-.234-.463.922.807 3.645-.435.558.428 2.9-1.541-.818-.3-.684-1.431-1.122-.803-1.846-.965-.817zm3.048-3.327l.693-.805.22.62 1.507-.04L35 68.294l.043.354-.124.16-9.263-.951zm-21.583-22.7l9.237.738.293-.54.236 1.92-1.05 1.421-.139-1.135-2.499-.414-.488.132-4.188-1.286-.984.192-.729-.63zm8.653-3.439l-.427-3.474.265.4.522.152 3.261 4.856-.73 1.097-2.562.242.18-.887zm36.155 8.235L49.7 57.2l-4.816.663.96-.982-1.357.095-.957-4.276.2-1.896-.735-.702.8-.53-1.152-.58zm9.885-19.217l-.354 6.525.566.507-.977.84.105.852-2.838.348-.638-.498.63-.148 2.172-4.012-.602-.214 1.595-4.017.444-.486zM57.01 46.94l1.553-.263-.117.807 1.873 3.515 1.137 2.813-.806-.117-2.768-3.186-.705-1.641-1.356-.482zM45.13 31.116l1.282-.09.337-.185.905 7.955-1.57.121.418-.699zM59.55 44.76l-.114-.925.87-1.115.647.569 2.817.661 3.685 1.852-5.983-.633-1.089-.659zm.366-5.81l4.498-.912-4.445 2.49-.41.77-.469-.302-.138-1.132.71-.087zM82.99 62.042l3.112-.454.869 8.248-.623.797-1.765.288-.147-1.782 1.066-.707-1.302-.636-.707-5.17zm1.317-18.599l.885 8.965-1.561.192-.088-.71.525-1-.788-.552-.522-4.833.606-.939-.832-.905zm-2.969-17.134h.577l.76.915.66 6.544-.31-.177-.601-.79-1.052-5.06.632-.725zm54.466 27.16l-1.136.716.716 1.136-1.683 7.404-.497.061-1.667-15.926 3.846 4.929zm-22.9-28.73l1.82 15.403-4.438-5.648.927-.039-.395-2.04 1.204-3.101-.696-1.57 1.161.072-.412-2.182zm85.746 21.516l3.113-.454.868 8.248-.622.797-1.765.288-.148-1.782 1.066-.707-1.302-.633-.706-5.17zm1.317-18.6l.885 8.966-1.561.192-.087-.71.525-1-.788-.552-.522-4.833.605-.939-.832-.905zm-2.967-17.133h.576l.76.915.66 6.544-.31-.177-.601-.791-1.053-5.055.631-.726zM105.45 122.396l1.64-.13-.277 1.258 1.875 2.362-.375 1.054 1.258.853.96 3.123-.062.08-1.1-.154-3.75-3.57-1.117-.295-.298-1.26-1-.525zm-7.831.745l1.168 8.93-2.918.287.217-1.755-.477-.949.614-.867-1.061-1.022-.267-3.928-.77-.41zm-4.33-35.26l1.09 8.868-2.554.313.383-.983-.653-1.216-.017-4.247-.655-.64.846-1.904zm9.23 7.724l-3.044-2.507 1.064-.13.81-1.61 1.223-.007 3.357-2.572-1.373 3.481-.73 1.674.253 1.48zm14.107 1.652l.736.126-4.506 3.795-.984.192-.925 1.266-2.246-1.884-.131-1.065.71-.663 2.604.688.817-.965.478.373.07-.008zm-5.812 20.735l-.095-.78 3.147-.17 6.816.963-2.029-.11-4.035.566-2.003-.474-.515.495zm22.143 1.458l3.113-.453.869 8.247-.623.797-1.765.288-.147-1.782 1.066-.707-1.302-.632-.706-5.17zm1.317-18.599l.886 8.965-1.562.192-.087-.713.525-1-.788-.551-.522-4.834.605-.938-.832-.906zm-2.968-17.135l.576.001.76.914.66 6.545-.31-.178-.6-.79-1.054-5.056.632-.725zm72.911 24.895l-1.136.716.716 1.136-1.683 7.409-.496.06-1.667-15.926 3.846 4.929zm-22.898-28.73l1.82 15.404-4.438-5.649.93-.042-.394-2.04 1.204-3.101-.697-1.571 1.162.073-.412-2.182zm42.805 28.376l3.113-.454.868 8.247-.622.797-1.765.289-.148-1.783 1.066-.707-1.302-.632-.706-5.17zm1.317-18.6l.885 8.965-1.561.192-.088-.713.525-1-.788-.551-.522-4.833.605-.94-.831-.905zm-2.969-17.135l.577.001.76.914.66 6.545-.31-.178-.601-.79-1.053-5.056.631-.725zm54.466 27.16l-1.136.716.716 1.136-1.683 7.409-.496.06-1.667-15.926 3.846 4.929zm-22.899-28.73l1.82 15.404-4.438-5.648.93-.043-.394-2.04 1.204-3.101-.697-1.571 1.162.073-.412-2.182zM42.523 157.729l.018.142-.614.867-.162 4.554.522.728-.553 1.364.193.984-2.759.41-3.841-3.129.966-.334.038-.87 4.646-4.386 1.304-.52zm-8.704 37.004l1.115 9.08-2.625.323-.9-6.156.333-2.56-.762-.338zm7.92-25.817l-.252-2.058.415.453 1.254-1.522.62.356 4.934-2.047 1.435.545.754-.309-.117.807-5.875 2.593-.418.7-.86.033-.933 1.195zm-.362 15.816l-3.06-2.647.364-.548 4.353-1.47 1.037 4.337zm-13.694-25.32l.345-.114 1.716 2.238.801 6.527-2.058.252.631-.725-.78-.48.171-.957-1.017-5.353.48-.78zm17.086 31.82l1.05-1.425.139 1.136 1.152.002.815.765 4.864 1.491 1.852.42-.125.16-.31-.178-1.188.29-.682-.275-5.958.155-.47.273-.584-.649-.153 1.1zm-1.86 2.457l1.419-.174-.569.646.868.614 1.104 1.953-.285.61.515 3.61-1.663-1.236.188-.815-.876-.685-1.432-2.272-.94-.029zm-.604-20.162l.195-.168.54.294 2.054.324 5.207 1.375.009.07-.923.114.22.62-3.713-.335-1.933.67-.432-.595-.848.104zm10.44 9.953l.533-.353.168.195-5.976 2.39-.391.912-1.925.165-.24.965-.567-.506-.296-2.412.468.878.657-.513 6.565-2.246zm-3.565-3.81l-1.61 2.141-.591-.719-3.74-1.127 1.17-.431 1.846-1.38.444-.486zm-8.69-3.903l1.136-.14.084 1.862 1.505 1.112-.197 1.321-2.748-.67-.956-.747-1.384.458zm-9.222 1.132l.354-.043.601 4.895-.114-.345-.557-.436.142-.594-.336-.39zm36.093 14.148l3.113-.453.868 8.247-.622.797-1.765.288-.148-1.782 1.066-.707-1.302-.632-.706-5.17zm1.317-18.599l.885 8.965-1.564.192-.087-.71.525-1-.792-.55-.522-4.834.605-.939-.832-.905zm-2.968-17.135h.576l.76.915.66 6.545-.31-.178-.601-.79-1.053-5.056.631-.725zm34.307 24.883l.366 2.403-1.391-.189-.897.902-6.782 2.201-.407-.382.24-.39 1.42-.75.464-1.498 1.999-1.902.895.25.127-1.312 1.722-1.219zm-11.464-15.948l-.079-.638.355-.044.406.382.675-.37 7.669.282.375 2.473-1.383 1.611-1.007-1.748-1.126.21-4.96-2.272zm15.316-4.903l-2.344.288-.841-.4.48-.78-.742-1.35-.754-3.796.462-.345-.21-1.127 3.232 5.216.993-.122 1.106.8zm.652 34.631l-.006-1.223.472-1.426-.6-.79.101-2.102.676-.947-.788-.551 3.175-.534 1.841 1.502-1.296.59zm38.87-21.84l-1.026-8.947 9.498-1.238.964 9.028zm-11.739-7.632l1.107 9.01-8.301 1.02.657-.513-.663-.71-.357-1.112.813-6.87zm36.453 14.177l3.112-.454.87 8.247-.623.797-1.765.288-.148-1.782 1.066-.707-1.302-.632-.706-5.17zm1.317-18.6l.885 8.965-1.561.192-.088-.71.525-1-.788-.551-.521-4.834.605-.938-.832-.906zm-2.969-17.135l.577.001.76.914.66 6.545-.31-.178-.601-.79-1.053-5.056.63-.725zm44.066-5.339l-1.075 5.317.443.09-.804 2.835.415.453-2.128.26-2.786-2.176 1.814-2.238.408-.194-.014-1.87.585.072 1.715-2.443 1.527-.476zm-1.851 18.377l2.545-.384-.197.744 1.176 1.367.104.852 2.146 3.985.282.542-.507.566-1.286.085-1.008-1.173-3.352-3.837-2.02-.04 1.165-1.654zm5.525-.75l-2.436-1.07-.338.763-.227-1.844 1.014-1.132.646.568 1.57-.121-.285.611.772-.166 6.261 2.904-.124.159zm4.137-10.878l1.24.136.23.115.027.213-5.796 2.656-1.872.59-1.535.404-.288-2.342 1.092-.494.566.507zm-22.226-4.473l.31-.398.932-.043.31-.397 1.046 8.513-2.35.217.498-.638-.503-5.267.385-1.558zm3.893 23.5l.595-.432.392 3.193-.71.087.517-1.07-.052-1.002zm12.481.772l.186.337-3.466.497z" stroke="rgba(0,0,0,0)" opacity=".081"/><g data-name="Gruppe 1211"><g data-name="Gruppe 1131"><g data-name="Gruppe 13"><path data-name="Pfad 13" d="M155.676 53.598c.116.1.193.163.278.221a15.474 15.474 0 004.34 2.07 20.24 20.24 0 008.257.658 22.472 22.472 0 003.245-.622 22.7 22.7 0 005.426-2.21 18.7 18.7 0 005.19-4.291 14.382 14.382 0 003.159-6.577 17.028 17.028 0 00-.031-6.183 17.551 17.551 0 00-1.306-4.224 20.629 20.629 0 00-6.39-7.864 30.457 30.457 0 00-9.146-4.727 41.3 41.3 0 00-9.315-1.882.531.531 0 00-.334 0 .961.961 0 00.034.107 5.275 5.275 0 01.389 2.95.455.455 0 000 .209c.069.262.13.526.194.788.253 1.009.471 2.025.679 3.045.127.654.272 1.3.375 1.961a15.843 15.843 0 01.3 2.417.4.4 0 00.031.153c.168.388.111.56-.263.77-.5.284-1 .569-1.486.885a7.155 7.155 0 00-1.841 1.626 10.1 10.1 0 00-.845 1.3.629.629 0 01-.366.315 1.087 1.087 0 01-1.263-.756 1.449 1.449 0 01.06-.824 4.725 4.725 0 01.716-1.224c.266-.351.553-.68.84-1.009a2.606 2.606 0 00.438-.97.445.445 0 00-.269.117 3.48 3.48 0 01-.622.435c-.268.167-.532.336-.8.5a1.9 1.9 0 00-.938 1.581c-.011.173-.042.345-.07.518a.585.585 0 01-.267.4 1.01 1.01 0 01-.887.25.78.78 0 00.279.46.435.435 0 01.164.419 7.2 7.2 0 01-.16.9c-.069.29-.145.575-.188.871a1.082 1.082 0 00.064.591c.073.18.149.357.219.53a1.887 1.887 0 01-.061 1.53.52.52 0 01-.673.3.512.512 0 01-.134-.076c-.121-.08-.221-.17-.341-.246a.616.616 0 00-.4-.124.8.8 0 01-.36.873c-.173.146-.345.3-.524.435-.441.331-.888.655-1.337.979a.339.339 0 00-.167.318 15.336 15.336 0 00.3 2.631c.073.377.154.756.264 1.124.03.1.074.143.182.132a4.727 4.727 0 001.183-.225c.32-.116.377-.2.37-.545a.566.566 0 01.479-.642.584.584 0 01.087-.006 4.606 4.606 0 01.554-.023 2.8 2.8 0 011.008.122.445.445 0 00.453-.048c.071-.05.147-.093.219-.139a19.6 19.6 0 001.808-1.433 9.992 9.992 0 012.227-1.518 3.473 3.473 0 011.243-.393 1.247 1.247 0 011.3.705 2.073 2.073 0 01.176.516q.09.465.147.936a.927.927 0 00.671.852 2.748 2.748 0 011.041.687 10.279 10.279 0 011.148 1.366 1.348 1.348 0 01.206 1.173c-.065.271-.172.53-.264.8-.158.466-.208.384.155.811a10.523 10.523 0 001.078 1.034 3.407 3.407 0 01.7.849.97.97 0 01.184.457c0 .26.152.326.36.357.06.008.122.02.182.028a.589.589 0 01.559.62.561.561 0 01-.05.209c-.022.077-.093.147-.061.257.121.009.241.017.359.03a.719.719 0 01.747.688v.01a.781.781 0 00.063.318 2.4 2.4 0 01.948-.216c.516-.029 1.03-.064 1.55-.091a1 1 0 00.47-.141 1.072 1.072 0 01.533-.195.387.387 0 01.407.52.7.7 0 01-.185.312 2.784 2.784 0 01-.45.36 7.9 7.9 0 01-1.843.87 3.6 3.6 0 01-2.14.126 3.447 3.447 0 00-.777-.1c-.671-.012-1.329.076-1.995.1a8.05 8.05 0 01-2.027-.166 54.6 54.6 0 01-3.47-.933c-.81-.241-1.6-.5-2.394-.784-.2-.072-.209-.069-.278.126a1.013 1.013 0 01-.578.609 2.989 2.989 0 01-.725.188m-.776-39.222a1.432 1.432 0 00.54.028 43.632 43.632 0 0110.123 1.1 38.634 38.634 0 0110.9 4.236 29.277 29.277 0 017.638 6.263 22.064 22.064 0 014.141 7.127 20.391 20.391 0 01.765 2.89 19.421 19.421 0 01.329 2.839 17.824 17.824 0 01-2.977 10.881 21.415 21.415 0 01-5.987 5.929 27.214 27.214 0 01-7.227 3.428 28.488 28.488 0 01-5.935 1.182 25.388 25.388 0 01-9.024-.728 18.915 18.915 0 01-7.009-3.519 17.534 17.534 0 01-6.287-12.045 17.076 17.076 0 01.607-5.894 24.957 24.957 0 012.615-5.938 52.556 52.556 0 013.165-4.671c.963-1.3 1.961-2.583 2.883-3.911a17.327 17.327 0 001.188-1.947c.134-.268.25-.539.358-.819a2.782 2.782 0 00.024-1.973 7.546 7.546 0 00-1.638-2.7 1.279 1.279 0 01-.27-.385.929.929 0 01.369-1.186c.058-.038.138-.042.169-.116z" fill="#fff"/></g><g data-name="Gruppe 25"><path data-name="Pfad 25" d="M177.087 33.055a2.124 2.124 0 00.215.071 5.376 5.376 0 012.034.94 5.958 5.958 0 001.607.816 4.958 4.958 0 011.122.506c.157.1.185.088.328-.064a.836.836 0 01.152-.143.34.34 0 01.477.06l.012.016a.869.869 0 01.137.278 13.861 13.861 0 01.781 4.141 14.387 14.387 0 01-.779 5.362 12.7 12.7 0 01-2.909 4.723.929.929 0 01-.619.3c-.134.01-.263.023-.4.024a.341.341 0 01-.367-.27 3.212 3.212 0 00-.533-1.161c-.1-.162-.2-.329-.3-.489a.442.442 0 01.007-.516 1.931 1.931 0 00.179-.357 1 1 0 00-.123-1 2.548 2.548 0 00-.473-.491 8.852 8.852 0 00-1.066-.716.527.527 0 01-.291-.509c0-.72-.328-.995-1.045-.907a4.374 4.374 0 00-1.367.442 6.089 6.089 0 00-1.548 1.015 1.035 1.035 0 01-.385.219c-.784.248-1.569.49-2.349.748a1.67 1.67 0 01-.974.042 20.714 20.714 0 01-2.306-.749.507.507 0 01-.333-.343 1.053 1.053 0 00-.149-.305.387.387 0 00-.32-.193c-.268-.012-.367-.114-.385-.367a9.823 9.823 0 00-.42-1.946 4.745 4.745 0 01-.272-1.464 1.9 1.9 0 01.52-1.306 5.572 5.572 0 01.442-.412.778.778 0 00.284-.7c-.011-.236-.027-.47-.032-.707a1.1 1.1 0 01.439-.957c1.06-.835 2.165-1.6 3.288-2.344.257-.171.517-.331.78-.489a1.6 1.6 0 01.283-.136.363.363 0 01.531.315 1.374 1.374 0 00.088.382.259.259 0 00.289.168 2.967 2.967 0 00.887-.22 1.118 1.118 0 01.791-.06 1.543 1.543 0 00.443.046.828.828 0 00.86-.694c.011-.068.019-.138.023-.207a.433.433 0 01.418-.447h.007a3.7 3.7 0 001.057-.3 1.654 1.654 0 00.83-.77 1.08 1.08 0 00.015-.963.664.664 0 00-.867-.36.644.644 0 00-.143.081 1.711 1.711 0 00-.392.383.5.5 0 01-.646.183l-.784-.3a.514.514 0 00-.176-.051.24.24 0 00-.232.094c-.038.071.028.132.068.185a3.28 3.28 0 00.248.3.352.352 0 01.1.4.388.388 0 01-.37.2.767.767 0 01-.352-.1c-.579-.263-1.153-.546-1.755-.771a5.056 5.056 0 00-1.47-.363.737.737 0 00-.359.044c-.1.044-.144.1-.064.2a.274.274 0 01.043.065.49.49 0 01-.151.676.473.473 0 01-.217.074.662.662 0 01-.385-.047.27.27 0 00-.289.036 1.964 1.964 0 00-.978 1.5c-.037.4-.1.794-.148 1.2a.531.531 0 01-.368.467c-.552.22-1.1.441-1.659.649a.482.482 0 01-.653-.2.405.405 0 01-.023-.052 2.284 2.284 0 01-.264-1.319.494.494 0 01.436-.422c.325-.077.651-.152.975-.23.409-.1.431-.128.343-.532a1.476 1.476 0 00-.037-.153c-.053-.311-.274-.421-.553-.464-.157-.025-.331-.024-.389-.2s.063-.294.172-.407a2.072 2.072 0 00.393-.495 1.165 1.165 0 00.157-.757.471.471 0 01.177-.468 1.907 1.907 0 00.325-.341.185.185 0 000-.261l-.016-.014c-.217-.217-.217-.319-.042-.567a2.325 2.325 0 00.138-.191c.07-.119.022-.207-.117-.208a1.3 1.3 0 00-.385.077 2.651 2.651 0 01-.672.114 1.063 1.063 0 01-.559-.115.316.316 0 01-.219-.388.312.312 0 01.107-.162c.072-.086.153-.167.219-.26.126-.172.13-.2-.017-.361a.942.942 0 01-.135-1.1.607.607 0 01.4-.354c.466-.126.928-.248 1.392-.372a3.456 3.456 0 00.42-.152.4.4 0 00.271-.4 9.078 9.078 0 01.218-1.588 2.365 2.365 0 01.193-.57.279.279 0 01.3-.167 16.16 16.16 0 0111.079 4.883c.506.487 1 .985 1.471 1.5a.381.381 0 01.084.532.356.356 0 01-.08.081c-.076.086-.156.166-.232.251a.586.586 0 01-.664.177c-.1-.029-.224-.127-.29-.037s.06.2.122.283a1.636 1.636 0 00.852.583c.161.055.22.031.269-.137a.457.457 0 01.553-.333.47.47 0 01.185.093 2.144 2.144 0 01.915 1.3 6.324 6.324 0 01.112 2.028 2.341 2.341 0 01-.032.364.383.383 0 01-.611.279 1.346 1.346 0 01-.206-.159 13.6 13.6 0 00-2-1.4 4.418 4.418 0 00-1.058-.442.736.736 0 00-.757.149c-.141.128-.305.234-.491.378" fill="#fff"/></g></g><g data-name="Gruppe 13"><path data-name="Pfad 13" d="M155.676 53.598c.116.1.193.163.278.221a15.474 15.474 0 004.34 2.07 20.24 20.24 0 008.257.658 22.472 22.472 0 003.245-.622 22.7 22.7 0 005.426-2.21 18.7 18.7 0 005.19-4.291 14.382 14.382 0 003.159-6.577 17.028 17.028 0 00-.031-6.183 17.551 17.551 0 00-1.306-4.224 20.629 20.629 0 00-6.39-7.864 30.457 30.457 0 00-9.146-4.727 41.3 41.3 0 00-9.315-1.882.531.531 0 00-.334 0 .961.961 0 00.034.107 5.275 5.275 0 01.389 2.95.455.455 0 000 .209c.069.262.13.526.194.788.253 1.009.471 2.025.679 3.045.127.654.272 1.3.375 1.961a15.843 15.843 0 01.3 2.417.4.4 0 00.031.153c.168.388.111.56-.263.77-.5.284-1 .569-1.486.885a7.155 7.155 0 00-1.841 1.626 10.1 10.1 0 00-.845 1.3.629.629 0 01-.366.315 1.087 1.087 0 01-1.263-.756 1.449 1.449 0 01.06-.824 4.725 4.725 0 01.716-1.224c.266-.351.553-.68.84-1.009a2.606 2.606 0 00.438-.97.445.445 0 00-.269.117 3.48 3.48 0 01-.622.435c-.268.167-.532.336-.8.5a1.9 1.9 0 00-.938 1.581c-.011.173-.042.345-.07.518a.585.585 0 01-.267.4 1.01 1.01 0 01-.887.25.78.78 0 00.279.46.435.435 0 01.164.419 7.2 7.2 0 01-.16.9c-.069.29-.145.575-.188.871a1.082 1.082 0 00.064.591c.073.18.149.357.219.53a1.887 1.887 0 01-.061 1.53.52.52 0 01-.673.3.512.512 0 01-.134-.076c-.121-.08-.221-.17-.341-.246a.616.616 0 00-.4-.124.8.8 0 01-.36.873c-.173.146-.345.3-.524.435-.441.331-.888.655-1.337.979a.339.339 0 00-.167.318 15.336 15.336 0 00.3 2.631c.073.377.154.756.264 1.124.03.1.074.143.182.132a4.727 4.727 0 001.183-.225c.32-.116.377-.2.37-.545a.566.566 0 01.479-.642.584.584 0 01.087-.006 4.606 4.606 0 01.554-.023 2.8 2.8 0 011.008.122.445.445 0 00.453-.048c.071-.05.147-.093.219-.139a19.6 19.6 0 001.808-1.433 9.992 9.992 0 012.227-1.518 3.473 3.473 0 011.243-.393 1.247 1.247 0 011.3.705 2.073 2.073 0 01.176.516q.09.465.147.936a.927.927 0 00.671.852 2.748 2.748 0 011.041.687 10.279 10.279 0 011.148 1.366 1.348 1.348 0 01.206 1.173c-.065.271-.172.53-.264.8-.158.466-.208.384.155.811a10.523 10.523 0 001.078 1.034 3.407 3.407 0 01.7.849.97.97 0 01.184.457c0 .26.152.326.36.357.06.008.122.02.182.028a.589.589 0 01.559.62.561.561 0 01-.05.209c-.022.077-.093.147-.061.257.121.009.241.017.359.03a.719.719 0 01.747.688v.01a.781.781 0 00.063.318 2.4 2.4 0 01.948-.216c.516-.029 1.03-.064 1.55-.091a1 1 0 00.47-.141 1.072 1.072 0 01.533-.195.387.387 0 01.407.52.7.7 0 01-.185.312 2.784 2.784 0 01-.45.36 7.9 7.9 0 01-1.843.87 3.6 3.6 0 01-2.14.126 3.447 3.447 0 00-.777-.1c-.671-.012-1.329.076-1.995.1a8.05 8.05 0 01-2.027-.166 54.6 54.6 0 01-3.47-.933c-.81-.241-1.6-.5-2.394-.784-.2-.072-.209-.069-.278.126a1.013 1.013 0 01-.578.609 2.989 2.989 0 01-.725.188m-.776-39.222a1.432 1.432 0 00.54.028 43.632 43.632 0 0110.123 1.1 38.634 38.634 0 0110.9 4.236 29.277 29.277 0 017.638 6.263 22.064 22.064 0 014.141 7.127 20.391 20.391 0 01.765 2.89 19.421 19.421 0 01.329 2.839 17.824 17.824 0 01-2.977 10.881 21.415 21.415 0 01-5.987 5.929 27.214 27.214 0 01-7.227 3.428 28.488 28.488 0 01-5.935 1.182 25.388 25.388 0 01-9.024-.728 18.915 18.915 0 01-7.009-3.519 17.534 17.534 0 01-6.287-12.045 17.076 17.076 0 01.607-5.894 24.957 24.957 0 012.615-5.938 52.556 52.556 0 013.165-4.671c.963-1.3 1.961-2.583 2.883-3.911a17.327 17.327 0 001.188-1.947c.134-.268.25-.539.358-.819a2.782 2.782 0 00.024-1.973 7.546 7.546 0 00-1.638-2.7 1.279 1.279 0 01-.27-.385.929.929 0 01.369-1.186c.058-.038.138-.042.169-.116z" fill="#fff"/></g><g data-name="Gruppe 25"><path data-name="Pfad 25" d="M177.087 33.054a2.124 2.124 0 00.215.071 5.376 5.376 0 012.034.94 5.958 5.958 0 001.607.816 4.958 4.958 0 011.122.506c.157.1.185.088.328-.064a.836.836 0 01.152-.143.34.34 0 01.477.06l.012.016a.869.869 0 01.137.278 13.861 13.861 0 01.781 4.141 14.387 14.387 0 01-.779 5.362 12.7 12.7 0 01-2.909 4.723.929.929 0 01-.619.3c-.134.01-.263.023-.4.024a.341.341 0 01-.367-.27 3.212 3.212 0 00-.533-1.161c-.1-.162-.2-.329-.3-.489a.442.442 0 01.007-.516 1.931 1.931 0 00.179-.357 1 1 0 00-.123-1 2.548 2.548 0 00-.473-.491 8.852 8.852 0 00-1.066-.716.527.527 0 01-.291-.509c0-.72-.328-.995-1.045-.907a4.374 4.374 0 00-1.367.442 6.089 6.089 0 00-1.548 1.015 1.035 1.035 0 01-.385.219c-.784.248-1.569.49-2.349.748a1.67 1.67 0 01-.974.042 20.714 20.714 0 01-2.306-.749.507.507 0 01-.333-.343 1.053 1.053 0 00-.149-.305.387.387 0 00-.32-.193c-.268-.012-.367-.114-.385-.367a9.823 9.823 0 00-.42-1.946 4.745 4.745 0 01-.272-1.464 1.9 1.9 0 01.52-1.306 5.572 5.572 0 01.442-.412.778.778 0 00.284-.7c-.011-.236-.027-.47-.032-.707a1.1 1.1 0 01.439-.957c1.06-.835 2.165-1.6 3.288-2.344.257-.171.517-.331.78-.489a1.6 1.6 0 01.283-.136.363.363 0 01.531.315 1.374 1.374 0 00.088.382.259.259 0 00.289.168 2.967 2.967 0 00.887-.22 1.118 1.118 0 01.791-.06 1.543 1.543 0 00.443.046.828.828 0 00.86-.694c.011-.068.019-.138.023-.207a.433.433 0 01.418-.447h.007a3.7 3.7 0 001.057-.3 1.654 1.654 0 00.83-.77 1.08 1.08 0 00.015-.963.664.664 0 00-.867-.36.644.644 0 00-.143.081 1.711 1.711 0 00-.392.383.5.5 0 01-.646.183l-.784-.3a.514.514 0 00-.176-.051.24.24 0 00-.232.094c-.038.071.028.132.068.185a3.28 3.28 0 00.248.3.352.352 0 01.1.4.388.388 0 01-.37.2.767.767 0 01-.352-.1c-.579-.263-1.153-.546-1.755-.771a5.056 5.056 0 00-1.47-.363.737.737 0 00-.359.044c-.1.044-.144.1-.064.2a.274.274 0 01.043.065.49.49 0 01-.151.676.473.473 0 01-.217.074.662.662 0 01-.385-.047.27.27 0 00-.289.036 1.964 1.964 0 00-.978 1.5c-.037.4-.1.794-.148 1.2a.531.531 0 01-.368.467c-.552.22-1.1.441-1.659.649a.482.482 0 01-.653-.2.405.405 0 01-.023-.052 2.284 2.284 0 01-.264-1.319.494.494 0 01.436-.422c.325-.077.651-.152.975-.23.409-.1.431-.128.343-.532a1.476 1.476 0 00-.037-.153c-.053-.311-.274-.421-.553-.464-.157-.025-.331-.024-.389-.2s.063-.294.172-.407a2.072 2.072 0 00.393-.495 1.165 1.165 0 00.157-.757.471.471 0 01.177-.468 1.907 1.907 0 00.325-.341.185.185 0 000-.261l-.016-.014c-.217-.217-.217-.319-.042-.567a2.325 2.325 0 00.138-.191c.07-.119.022-.207-.117-.208a1.3 1.3 0 00-.385.077 2.651 2.651 0 01-.672.114 1.063 1.063 0 01-.559-.115.316.316 0 01-.219-.388.312.312 0 01.107-.162c.072-.086.153-.167.219-.26.126-.172.13-.2-.017-.361a.942.942 0 01-.135-1.1.607.607 0 01.4-.354c.466-.126.928-.248 1.392-.372a3.456 3.456 0 00.42-.152.4.4 0 00.271-.4 9.078 9.078 0 01.218-1.588 2.365 2.365 0 01.193-.57.279.279 0 01.3-.167 16.16 16.16 0 0111.079 4.883c.506.487 1 .985 1.471 1.5a.381.381 0 01.084.532.356.356 0 01-.08.081c-.076.086-.156.166-.232.251a.586.586 0 01-.664.177c-.1-.029-.224-.127-.29-.037s.06.2.122.283a1.636 1.636 0 00.852.583c.161.055.22.031.269-.137a.457.457 0 01.553-.333.47.47 0 01.185.093 2.144 2.144 0 01.915 1.3 6.324 6.324 0 01.112 2.028 2.341 2.341 0 01-.032.364.383.383 0 01-.611.279 1.346 1.346 0 01-.206-.159 13.6 13.6 0 00-2-1.4 4.418 4.418 0 00-1.058-.442.736.736 0 00-.757.149c-.141.128-.305.234-.491.378" fill="#fff"/></g></g></g></svg>